<svg width="287" height="287" viewBox="0 0 287 287" fill="none" xmlns="http://www.w3.org/2000/svg">
<g clip-path="url(#clip0)">
<path d="M287 143.5C287 64.2471 222.753 0 143.5 0C64.2471 0 0 64.2471 0 143.5C0 222.753 64.2471 287 143.5 287C222.753 287 287 222.753 287 143.5Z" fill="#70E0BF"/>
<path d="M80.7188 188.344C93.102 188.344 103.141 178.305 103.141 165.922C103.141 153.539 93.102 143.5 80.7188 143.5C68.3355 143.5 58.2969 153.539 58.2969 165.922C58.2969 178.305 68.3355 188.344 80.7188 188.344Z" fill="#EAC0B3"/>
<path d="M80.7188 183.859H156.953V295.388C156.953 295.388 140.617 304.938 118.836 304.938C97.0549 304.938 80.7188 289.344 80.7188 289.344V183.859Z" fill="#EAC0B3"/>
<path d="M156.107 238.175C156.107 262.322 152.201 260.036 126.807 260.036C101.415 260.036 89.6946 240.461 89.6946 216.314C89.6946 192.167 88.7309 170.406 109.228 170.406C167.177 172.542 156.107 214.028 156.107 238.175Z" fill="#C99688"/>
<path d="M205.769 161.882C205.769 201.894 199.555 251.094 150.227 251.094C100.898 251.094 78.1555 201.894 78.1555 161.882C67.2657 114.352 69.5078 58.2969 143.5 58.2969C217.492 58.2969 205.769 121.871 205.769 161.882Z" fill="#F5D0C5"/>
<path d="M170.406 183.859H165.922C163.445 183.859 161.438 185.867 161.438 188.344C161.438 190.82 163.445 192.828 165.922 192.828H170.406C172.883 192.828 174.891 190.82 174.891 188.344C174.891 185.867 172.883 183.859 170.406 183.859Z" fill="#EAC0B3"/>
<path d="M170.406 269.062H71.75C49.4601 269.062 31.3906 287.132 31.3906 309.422V331.844C31.3906 354.134 49.4601 372.203 71.75 372.203H170.406C192.696 372.203 210.766 354.134 210.766 331.844V309.422C210.766 287.132 192.696 269.062 170.406 269.062Z" fill="#FF4DD8"/>
<path fill-rule="evenodd" clip-rule="evenodd" d="M129.89 117.495C155.052 125.849 189.93 137.429 226.461 100.898C244.398 82.9608 163.68 6.72648 98.6563 49.328C47.8335 56.8573 50.738 87.3098 52.9798 110.812C53.4085 115.305 53.8125 119.544 53.8125 123.32C53.8125 125.71 54.1251 127.498 54.7107 128.783C53.9901 134.313 53.8125 139.846 53.8125 143.5C53.8125 153.406 61.8436 161.437 71.75 161.437C81.6565 161.437 89.6875 153.406 89.6875 143.5C99.594 143.5 107.625 135.469 107.625 125.562C107.625 124.011 107.428 122.505 107.058 121.069C107.246 121.075 107.435 121.078 107.625 121.078C113.113 121.078 118.025 118.614 121.315 114.731C124.026 115.549 126.889 116.499 129.89 117.495Z" fill="#47280B"/>
<path d="M129.727 206.281C129.727 203.805 131.734 201.797 134.211 201.797H175.211C177.688 201.797 179.695 203.805 179.695 206.281C179.695 218.664 169.656 228.703 157.273 228.703H152.149C139.765 228.703 129.727 218.664 129.727 206.281Z" fill="#66253C"/>
<path fill-rule="evenodd" clip-rule="evenodd" d="M164.822 227.401C162.463 228.244 159.922 228.703 157.273 228.703H152.149C140.065 228.703 130.215 219.146 129.744 207.178C133.17 205.896 138.255 206.043 143.275 206.189C144.87 206.235 146.458 206.281 147.984 206.281C157.891 206.281 165.922 213.308 165.922 221.977C165.922 223.883 165.533 225.71 164.822 227.401Z" fill="#B03E67"/>
<path d="M143.5 203.142C143.5 202.399 144.102 201.797 144.845 201.797H151.123C151.867 201.797 152.469 202.399 152.469 203.142V213.905C152.469 214.648 151.867 215.25 151.123 215.25H144.845C144.102 215.25 143.5 214.648 143.5 213.905V203.142Z" fill="#B03E67"/>
<path d="M147.984 168.164C147.984 164.449 144.973 161.438 141.258 161.438C137.543 161.438 134.531 164.449 134.531 168.164V172.648C134.531 176.363 137.543 179.375 141.258 179.375C144.973 179.375 147.984 176.363 147.984 172.648V168.164Z" fill="#1B0B47"/>
<path d="M192.828 168.164C192.828 164.449 189.817 161.438 186.102 161.438C182.387 161.438 179.375 164.449 179.375 168.164V172.648C179.375 176.363 182.387 179.375 186.102 179.375C189.817 179.375 192.828 176.363 192.828 172.648V168.164Z" fill="#1B0B47"/>
</g>
<defs>
<clipPath id="clip0">
<rect width="287" height="287" rx="143.5" fill="white"/>
</clipPath>
</defs>
</svg>
